<svg width="400" height="120" viewBox="0 0 400 120" fill="none" xmlns="http://www.w3.org/2000/svg">
  <defs>
    <linearGradient id="bgGradientHoriz" x1="0%" y1="0%" x2="100%" y2="100%">
      <stop offset="0%" style="stop-color:#1e3a8a;stop-opacity:1" />
      <stop offset="50%" style="stop-color:#1e40af;stop-opacity:1" />
      <stop offset="100%" style="stop-color:#172554;stop-opacity:1" />
    </linearGradient>
  </defs>
  
  <!-- Icon Circle -->
  <circle cx="60" cy="60" r="50" fill="url(#bgGradientHoriz)"/>
  <circle cx="60" cy="60" r="42" fill="white" opacity="0.98"/>
  
  <!-- Box Icon -->
  <g transform="translate(60, 60)">
    <path d="M -18 -10 L 0 -20 L 18 -10 L 18 10 L 0 20 L -18 10 Z" 
          fill="url(#bgGradientHoriz)" 
          stroke="#172554" 
          stroke-width="1.5"/>
    <path d="M -18 -10 L 0 -20 L 18 -10 L 0 0 Z" fill="#1e40af" opacity="0.85"/>
    <path d="M 18 -10 L 18 10 L 0 20 L 0 0 Z" fill="#1e3a8a" opacity="0.9"/>
    <path d="M -18 -10 L -18 10 L 0 20 L 0 0 Z" fill="#172554" opacity="0.95"/>
    <path d="M -6 1 L -1 5 L 8 -5" stroke="white" stroke-width="2.5" stroke-linecap="round" fill="none"/>
  </g>
  
  <!-- SKIRO Text -->
  <text x="130" y="52" font-family="Inter, system-ui, -apple-system, sans-serif" font-size="38" font-weight="800" fill="url(#bgGradientHoriz)" letter-spacing="-1">SKIRO</text>
  
  <!-- Tagline -->
  <text x="132" y="78" font-family="Inter, system-ui, -apple-system, sans-serif" font-size="12" font-weight="500" fill="#1e3a8a" letter-spacing="1">Sistem Kontrol Inventaris &amp; Rekomendasi Optimal</text>
</svg>
